<svg xmlns="http://www.w3.org/2000/svg" viewBox="0 0 512 512" role="img" aria-labelledby="t d"><title id="t">Forge Studio mark</title><desc id="d">Flat two-tone flame-droplet mark in Forge Studio periwinkle.</desc><path d="M278 37C340 101 371 172 371 246C371 357 302 436 207 436C132 436 76 384 76 312C76 258 108 224 139 192C165 165 172 137 181 105C192 68 225 46 278 37Z" fill="#7b8fff"/><path d="M228 188C279 242 306 283 306 335C306 387 267 419 215 419C166 419 127 385 127 333C127 291 154 264 177 238C194 219 208 204 228 188Z" fill="#e7ecff"/></svg>